<?xml version="1.0" standalone="no"?>
<!DOCTYPE svg PUBLIC "-//W3C//DTD SVG 1.1//EN" "http://www.w3.org/Graphics/SVG/1.1/DTD/svg11.dtd" >
<svg xmlns="http://www.w3.org/2000/svg" width="100%" height="100%">
<metadata>
Created by FontXChange 20110222 at Wed Feb 20 13:30:20 2013
 By James Beall
Copyright (c) 2013 by Svenska Institutet. All rights reserved.
</metadata>
<defs>
<font id="SwedenSans" horiz-adv-x="498" >
  <font-face 
    font-family="SwedenSans"
    font-weight="400"
    font-stretch="normal"
    units-per-em="1000"
    panose-1="2 0 0 0 0 0 0 0 0 0"
    ascent="750"
    descent="-250"
    x-height="507"
    cap-height="712"
    bbox="-159 -250 990 952"
    underline-thickness="50"
    underline-position="-50"
    stemh="88"
    stemv="92"
    unicode-range="U+000D-FB04"
  />
<missing-glyph horiz-adv-x="240" 
 />
    <glyph glyph-name="ff" unicode="ff" horiz-adv-x="628" 
d="M485 0h-90v425h-218v-425h-90v425h-56v82h56v21c0 108 44 190 167 190c52 0 94 -15 126 -43l-53 -73c-18 20 -41 30 -70 30c-59 0 -80 -40 -80 -104v-21h218v21c0 108 44 190 167 190c52 0 94 -15 126 -43l-53 -73c-18 20 -41 30 -70 30c-59 0 -80 -40 -80 -104v-21h106
v-82h-106v-425z" />
    <glyph glyph-name="fi" unicode="fi" horiz-adv-x="630" 
d="M610 0h-310v82h95v343h-218v-425h-90v425h-56v82h56v21c0 108 44 190 170 190h63v-86h-63c-59 0 -80 -40 -80 -104v-21h308v-425h125v-82zM503 654c0 -35 -29 -63 -64 -63s-63 28 -63 63s28 64 63 64s64 -29 64 -64z" />
    <glyph glyph-name="ffi" unicode="ffi" horiz-adv-x="938" 
d="M918 0h-310v82h95v343h-218v-425h-90v425h-218v-425h-90v425h-56v82h56v21c0 108 44 190 167 190c52 0 94 -15 126 -43l-53 -73c-18 20 -41 30 -70 30c-59 0 -80 -40 -80 -104v-21h218v21c0 108 44 190 170 190h63v-86h-63c-59 0 -80 -40 -80 -104v-21h308v-425h125v-82z
M811 654c0 -35 -29 -63 -64 -63s-63 28 -63 63s28 64 63 64s64 -29 64 -64z" />
    <glyph glyph-name="f_j" unicode="fj" horiz-adv-x="551" 
d="M395 -1v426h-218v-425h-90v425h-56v82h56v21c0 108 44 190 170 190h63v-86h-63c-59 0 -80 -40 -80 -104v-21h308v-508c0 -121 -81 -210 -191 -210c-37 0 -66 10 -94 30l43 70c18 -10 36 -14 54 -14c60 0 98 48 98 124zM503 654c0 -35 -29 -63 -64 -63s-63 28 -63 63
s28 64 63 64s64 -29 64 -64z" />
    <glyph glyph-name="f_f_j" unicode="ffj" horiz-adv-x="859" 
d="M703 -1v426h-218v-425h-90v425h-218v-425h-90v425h-56v82h56v21c0 108 44 190 167 190c52 0 94 -15 126 -43l-53 -73c-18 20 -41 30 -70 30c-59 0 -80 -40 -80 -104v-21h218v21c0 108 44 190 170 190h63v-86h-63c-59 0 -80 -40 -80 -104v-21h308v-508
c0 -121 -81 -210 -191 -210c-37 0 -66 10 -94 30l43 70c18 -10 36 -14 54 -14c60 0 98 48 98 124zM811 654c0 -35 -29 -63 -64 -63s-63 28 -63 63s28 64 63 64s64 -29 64 -64z" />
    <glyph glyph-name="fl" unicode="fl" horiz-adv-x="630" 
d="M610 0h-310v82h95v554h-138c-59 0 -80 -42 -80 -108v-21h93v-82h-93v-425h-90v425h-56v82h56v21c0 108 44 190 170 190h228v-636h125v-82z" />
    <glyph glyph-name="ffl" unicode="ffl" horiz-adv-x="938" 
d="M918 0h-310v82h95v554h-138c-59 0 -80 -42 -80 -108v-21h93v-82h-93v-425h-90v425h-218v-425h-90v425h-56v82h56v21c0 108 44 190 167 190c52 0 94 -15 126 -43l-53 -73c-18 20 -41 30 -70 30c-59 0 -80 -40 -80 -104v-21h218v21c0 108 44 190 170 190h228v-636h125v-82z
" />
    <glyph glyph-name=".notdef" horiz-adv-x="240" 
 />
    <glyph glyph-name="B" unicode="B" horiz-adv-x="556" 
d="M292 0h-232v712h212c144 0 224 -80 224 -199c0 -66 -25 -115 -72 -147c60 -32 92 -89 92 -166c0 -121 -80 -200 -224 -200zM152 88h133c85 0 137 39 137 114s-52 113 -137 113h-133v-227zM152 403h113c85 0 137 36 137 109c0 72 -52 112 -137 112h-113v-221z" />
    <glyph glyph-name="C" unicode="C" horiz-adv-x="610" 
d="M480 201l90 -18c-46 -138 -147 -189 -244 -189c-132 0 -276 96 -276 362s144 362 276 362c97 0 198 -51 244 -189l-89 -22c-32 98 -96 123 -155 123c-81 0 -182 -48 -182 -274c0 -227 101 -274 183 -274c58 0 121 24 153 119z" />
    <glyph glyph-name="D" unicode="D" horiz-adv-x="601" 
d="M286 0h-226v712h216c132 0 275 -95 275 -357c0 -258 -138 -355 -265 -355zM152 88h124c81 0 181 48 181 265c0 224 -106 271 -191 271h-114v-536z" />
    <glyph glyph-name="E" unicode="E" horiz-adv-x="524" 
d="M494 0h-434v712h434v-88h-342v-221h211v-88h-211v-227h342v-88z" />
    <glyph glyph-name="F" unicode="F" horiz-adv-x="499" 
d="M152 0h-92v712h434v-88h-342v-231h211v-88h-211v-305z" />
    <glyph glyph-name="G" unicode="G" horiz-adv-x="629" 
d="M574 0h-82l-5 52c-47 -41 -104 -58 -160 -58c-134 0 -277 97 -277 362c0 266 144 362 275 362c98 0 197 -53 241 -189l-89 -22c-31 98 -93 123 -151 123c-81 0 -182 -48 -182 -274c0 -227 101 -274 183 -274c59 0 123 24 155 119v63h-153v88h245v-352z" />
    <glyph glyph-name="H" unicode="H" horiz-adv-x="599" 
d="M539 0h-92v312h-295v-312h-92v712h92v-312h295v312h92v-712z" />
    <glyph glyph-name="I" unicode="I" horiz-adv-x="430" 
d="M395 0h-360v72h134v568h-134v72h360v-72h-134v-568h134v-72z" />
    <glyph glyph-name="J" unicode="J" horiz-adv-x="512" 
d="M353 204v426h-169v82h261v-508c0 -121 -87 -210 -211 -210c-120 0 -209 83 -209 222l92 18c0 -104 44 -152 119 -152c73 0 117 46 117 122z" />
    <glyph glyph-name="K" unicode="K" horiz-adv-x="588" 
d="M588 0h-112l-256 337l-68 -76v-261h-92v712h92v-324l287 324h116l-275 -308z" />
    <glyph glyph-name="L" unicode="L" horiz-adv-x="451" 
d="M421 0h-361v712h92v-624h269v-88z" />
    <glyph glyph-name="M" unicode="M" horiz-adv-x="682" 
d="M622 0h-92v552l-165 -299h-48l-165 299v-552h-92v712h101l180 -325l180 325h101v-712z" />
    <glyph glyph-name="N" unicode="N" horiz-adv-x="651" 
d="M591 0h-97l-342 550v-550h-92v712h97l342 -549v549h92v-712z" />
    <glyph glyph-name="O" unicode="O" horiz-adv-x="656" 
d="M328 -6c-135 0 -278 96 -278 362s143 362 278 362s278 -96 278 -362s-143 -362 -278 -362zM328 82c84 0 184 47 184 274c0 226 -100 274 -184 274s-184 -48 -184 -274c0 -227 100 -274 184 -274z" />
    <glyph glyph-name="P" unicode="P" horiz-adv-x="551" 
d="M152 0h-92v712h232c144 0 224 -85 224 -215s-80 -210 -224 -210h-140v-287zM152 375h133c85 0 137 39 137 122s-52 127 -137 127h-133v-249z" />
    <glyph glyph-name="Q" unicode="Q" horiz-adv-x="656" 
d="M367 -111h-78v108c-122 17 -239 118 -239 359c0 266 143 362 278 362s278 -96 278 -362c0 -241 -117 -342 -239 -359v-108zM289 85v128h78v-128c73 15 145 78 145 271c0 226 -100 274 -184 274s-184 -48 -184 -274c0 -193 72 -256 145 -271z" />
    <glyph glyph-name="R" unicode="R" horiz-adv-x="548" 
d="M534 0h-104l-203 307h-75v-307h-92v712h232c144 0 224 -81 224 -205c0 -111 -64 -184 -182 -198zM152 395h133c85 0 137 36 137 112s-52 117 -137 117h-133v-229z" />
    <glyph glyph-name="S" unicode="S" horiz-adv-x="532" 
d="M284 307l-99 39c-81 32 -134 80 -134 173c0 125 97 199 220 199s207 -75 207 -202l-82 -18c-9 90 -57 132 -127 132c-64 0 -124 -35 -124 -102c0 -66 57 -90 106 -109l104 -41c83 -33 147 -77 147 -182c0 -131 -102 -202 -231 -202c-139 0 -241 82 -241 218l82 18
c10 -92 61 -148 156 -148c69 0 139 30 139 107c0 71 -59 93 -123 118z" />
    <glyph glyph-name="T" unicode="T" horiz-adv-x="520" 
d="M306 0h-92v624h-209v88h510v-88h-209v-624z" />
    <glyph glyph-name="U" unicode="U" horiz-adv-x="595" 
d="M443 225v487h92v-494c0 -144 -93 -224 -237 -224s-238 80 -238 224v494h92v-487c0 -89 48 -143 146 -143s145 54 145 143z" />
    <glyph glyph-name="V" unicode="V" horiz-adv-x="552" 
d="M316 0h-80l-234 712h95l179 -560l179 560h95z" />
    <glyph glyph-name="W" unicode="W" horiz-adv-x="773" 
d="M600 0h-92l-122 471l-121 -471h-92l-171 712h95l124 -549l119 450h93l118 -450l125 549h95z" />
    <glyph glyph-name="X" unicode="X" horiz-adv-x="560" 
d="M558 0h-107l-171 283l-171 -283h-107l225 371l-205 341h105l153 -253l153 253h105l-205 -341z" />
    <glyph glyph-name="Y" unicode="Y" horiz-adv-x="526" 
d="M309 0h-92v275l-215 437h98l163 -323l163 323h98l-215 -437v-275z" />
    <glyph glyph-name="Z" unicode="Z" horiz-adv-x="512" 
d="M481 0h-451v82l337 542h-321v88h436v-73l-342 -551h341v-88z" />
    <glyph glyph-name="Adieresis" unicode="&#xc4;" horiz-adv-x="572" 
d="M570 0h-95l-59 182h-260l-59 -182h-95l234 712h100zM387 270l-101 312l-102 -312h203zM252 845c0 -34 -27 -60 -61 -60s-60 26 -60 60s26 61 60 61s61 -27 61 -61zM441 845c0 -34 -27 -60 -61 -60s-60 26 -60 60s26 61 60 61s61 -27 61 -61z" />
    <glyph glyph-name="Aring" unicode="&#xc5;" horiz-adv-x="572" 
d="M570 0h-95l-59 182h-260l-59 -182h-95l234 712h100zM387 270l-101 312l-102 -312h203zM364 845c0 -43 -35 -78 -78 -78s-78 35 -78 78s35 78 78 78s78 -35 78 -78z" />
    <glyph glyph-name="Odieresis" unicode="&#xd6;" horiz-adv-x="656" 
d="M328 -6c-135 0 -278 96 -278 362s143 362 278 362s278 -96 278 -362s-143 -362 -278 -362zM328 82c84 0 184 47 184 274c0 226 -100 274 -184 274s-184 -48 -184 -274c0 -227 100 -274 184 -274zM294 845c0 -34 -27 -60 -61 -60s-60 26 -60 60s26 61 60 61s61 -27 61 -61
zM483 845c0 -34 -27 -60 -61 -60s-60 26 -60 60s26 61 60 61s61 -27 61 -61z" />
    <glyph glyph-name="a" unicode="a" 
d="M438 0h-85l-2 37c-39 -30 -87 -43 -140 -43c-97 0 -177 43 -177 148c0 96 66 146 180 153l134 8v25c0 64 -36 99 -104 99c-45 0 -86 -15 -110 -46l-74 21c20 65 96 111 189 111c119 0 189 -76 189 -175v-338zM348 138v94l-134 -8c-62 -4 -88 -32 -88 -80
c0 -32 12 -64 92 -64c38 0 89 7 130 58z" />
    <glyph glyph-name="b" unicode="b" horiz-adv-x="543" 
d="M151 0h-85v712h90v-253c37 36 82 54 135 54c103 0 218 -69 218 -260c0 -190 -115 -259 -219 -259c-53 0 -99 18 -136 55zM156 300v-72c14 -119 75 -148 133 -148s128 29 128 174c0 144 -70 173 -130 173c-52 0 -117 -22 -131 -127z" />
    <glyph glyph-name="c" unicode="c" horiz-adv-x="478" 
d="M364 143l80 -21c-22 -81 -89 -128 -184 -128c-115 0 -226 69 -226 259c0 191 112 260 227 260c89 0 160 -42 183 -124l-80 -21c-22 41 -59 59 -106 59c-60 0 -132 -29 -132 -174c0 -144 72 -173 131 -173c48 0 85 19 107 63z" />
    <glyph glyph-name="d" unicode="d" horiz-adv-x="543" 
d="M477 0h-85l-3 50c-38 -38 -84 -56 -137 -56c-103 0 -218 69 -218 260c0 190 115 259 218 259c52 0 98 -18 135 -53v252h90v-712zM387 207v72c-14 119 -75 148 -133 148s-128 -29 -128 -173c0 -145 70 -174 130 -174c52 0 117 22 131 127z" />
    <glyph glyph-name="e" unicode="e" horiz-adv-x="514" 
d="M480 227h-353c8 -122 74 -147 133 -147c52 0 98 19 124 63l80 -21c-24 -83 -104 -128 -201 -128c-119 0 -229 69 -229 258c0 192 113 261 223 261s223 -69 223 -260v-26zM128 297h257c-13 107 -76 130 -128 130c-53 0 -115 -23 -129 -130z" />
    <glyph glyph-name="f" unicode="f" horiz-adv-x="320" 
d="M177 0h-90v425h-56v82h56v21c0 108 44 190 167 190c52 0 94 -15 126 -43l-53 -73c-18 20 -41 30 -70 30c-59 0 -80 -40 -80 -104v-21h106v-82h-106v-425z" />
    <glyph glyph-name="g" unicode="g" horiz-adv-x="543" 
d="M387 -1v49c-37 -37 -83 -54 -135 -54c-103 0 -218 69 -218 260c0 190 115 259 218 259c53 0 100 -19 137 -55l3 49h85v-508c0 -121 -83 -210 -220 -210c-103 0 -178 51 -200 128l80 21c26 -44 72 -63 124 -63c83 0 126 48 126 124zM387 207v72c-14 119 -75 148 -133 148
s-128 -29 -128 -174c0 -144 70 -173 130 -173c52 0 117 22 131 127z" />
    <glyph glyph-name="h" unicode="h" horiz-adv-x="523" 
d="M457 0h-90v294c0 112 -56 133 -100 133s-99 -20 -111 -117v-310h-90v712h90v-246c34 31 76 47 122 47c85 0 179 -54 179 -210v-303z" />
    <glyph glyph-name="i" unicode="i" horiz-adv-x="354" 
d="M334 0h-300v82h105v343h-105v82h195v-425h105v-82zM247 654c0 -35 -29 -63 -64 -63s-63 28 -63 63s28 64 63 64s64 -29 64 -64z" />
    <glyph glyph-name="j" unicode="j" horiz-adv-x="355" 
d="M199 -1v426h-145v82h235v-508c0 -121 -80 -210 -192 -210c-61 0 -115 26 -151 78l69 46c27 -26 57 -38 86 -38c60 0 98 48 98 124zM307 654c0 -35 -29 -63 -64 -63s-63 28 -63 63s28 64 63 64s64 -29 64 -64z" />
    <glyph glyph-name="k" unicode="k" horiz-adv-x="501" 
d="M493 0h-107l-197 255l-33 -30v-225h-90v712h90v-377l192 173h121l-216 -195z" />
    <glyph glyph-name="l" unicode="l" horiz-adv-x="354" 
d="M334 0h-300v82h105v548h-105v82h195v-630h105v-82z" />
    <glyph glyph-name="m" unicode="m" horiz-adv-x="804" 
d="M738 0h-90v294c0 112 -56 133 -99 133c-41 0 -91 -20 -102 -117v-310h-90v294c0 112 -56 133 -99 133c-41 0 -91 -20 -102 -117v-310h-90v507h85l2 -41c33 31 72 47 116 47c52 0 110 -22 145 -77c36 51 87 77 145 77c85 0 179 -54 179 -210v-303z" />
    <glyph glyph-name="n" unicode="n" horiz-adv-x="523" 
d="M457 0h-90v294c0 112 -56 133 -100 133s-99 -20 -111 -117v-310h-90v507h85l2 -44c35 33 78 50 125 50c85 0 179 -54 179 -210v-303z" />
    <glyph glyph-name="o" unicode="o" horiz-adv-x="513" 
d="M257 -6c-110 0 -223 69 -223 259c0 191 113 260 223 260c109 0 222 -69 222 -260c0 -190 -113 -259 -222 -259zM257 80c60 0 130 29 130 173c0 145 -70 174 -130 174c-59 0 -131 -29 -131 -174c0 -144 72 -173 131 -173z" />
    <glyph glyph-name="p" unicode="p" horiz-adv-x="543" 
d="M156 -205h-90v712h85l3 -50c37 38 84 56 137 56c103 0 218 -69 218 -260c0 -190 -115 -259 -218 -259c-53 0 -99 18 -135 53v-252zM156 300v-72c14 -119 75 -148 133 -148s128 29 128 174c0 144 -70 173 -130 173c-52 0 -117 -22 -131 -127z" />
    <glyph glyph-name="q" unicode="q" horiz-adv-x="525" 
d="M477 -205h-90v253c-37 -37 -83 -54 -135 -54c-103 0 -218 69 -218 260c0 190 115 259 218 259c53 0 100 -19 137 -55l3 49h85v-712zM387 207v72c-14 119 -75 148 -133 148s-128 -29 -128 -174c0 -144 70 -173 130 -173c52 0 117 22 131 127z" />
    <glyph glyph-name="r" unicode="r" horiz-adv-x="329" 
d="M325 511l-10 -102c-11 4 -25 6 -41 6c-47 0 -105 -22 -118 -131v-284h-90v507h85l3 -69c36 51 81 75 132 75c12 0 27 -1 39 -2z" />
    <glyph glyph-name="s" unicode="s" horiz-adv-x="450" 
d="M397 389l-80 -21c-18 41 -46 59 -87 59c-46 0 -80 -22 -80 -56c0 -38 43 -47 133 -80c72 -27 133 -61 133 -146c0 -101 -87 -151 -193 -151c-99 0 -165 43 -189 128l80 21c24 -47 64 -63 113 -63c51 0 95 17 95 65c0 44 -38 50 -131 86c-64 25 -133 54 -133 138
c0 87 74 144 172 144c83 0 145 -40 167 -124z" />
    <glyph glyph-name="t" unicode="t" horiz-adv-x="333" 
d="M297 97l6 -78c-28 -17 -55 -25 -89 -25c-101 0 -137 70 -137 160v271h-56v82h56v154h90v-154h126v-82h-126v-261c0 -55 12 -84 54 -84c20 0 46 7 76 17z" />
    <glyph glyph-name="u" unicode="u" horiz-adv-x="533" 
d="M467 0h-85l-3 45c-38 -34 -84 -51 -133 -51c-86 0 -180 54 -180 210v303h90v-294c0 -113 56 -133 102 -133c45 0 106 20 119 117v310h90v-507z" />
    <glyph glyph-name="v" unicode="v" horiz-adv-x="460" 
d="M277 0h-94l-181 507h98l130 -379l130 379h98z" />
    <glyph glyph-name="w" unicode="w" horiz-adv-x="621" 
d="M492 0h-100l-82 290l-81 -290h-100l-127 507h98l90 -369l84 299h73l84 -299l90 369h98z" />
    <glyph glyph-name="x" unicode="x" horiz-adv-x="462" 
d="M452 0h-104l-118 181l-117 -181h-103l168 263l-157 244h104l105 -164l105 164h105l-157 -244z" />
    <glyph glyph-name="y" unicode="y" horiz-adv-x="455" 
d="M194 -205h-90l77 219l-179 493h98l127 -362l128 362h98z" />
    <glyph glyph-name="z" unicode="z" horiz-adv-x="445" 
d="M407 0h-373v73l262 352h-250v82h361v-78l-260 -347h260v-82z" />
    <glyph glyph-name="adieresis" unicode="&#xe4;" 
d="M222 640c0 -34 -27 -60 -61 -60s-60 26 -60 60s26 61 60 61s61 -27 61 -61zM411 640c0 -34 -27 -60 -61 -60s-60 26 -60 60s26 61 60 61s61 -27 61 -61zM438 0h-85l-2 37c-39 -30 -87 -43 -140 -43c-97 0 -177 43 -177 148c0 96 66 146 180 153l134 8v25
c0 64 -36 99 -104 99c-45 0 -86 -15 -110 -46l-74 21c20 65 96 111 189 111c119 0 189 -76 189 -175v-338zM348 138v94l-134 -8c-62 -4 -88 -32 -88 -80c0 -32 12 -64 92 -64c38 0 89 7 130 58z" />
    <glyph glyph-name="aring" unicode="&#xe5;" 
d="M334 640c0 -43 -35 -78 -78 -78s-78 35 -78 78s35 78 78 78s78 -35 78 -78zM438 0h-85l-2 37c-39 -30 -87 -43 -140 -43c-97 0 -177 43 -177 148c0 96 66 146 180 153l134 8v25c0 64 -36 99 -104 99c-45 0 -86 -15 -110 -46l-74 21c20 65 96 111 189 111
c119 0 189 -76 189 -175v-338zM348 138v94l-134 -8c-62 -4 -88 -32 -88 -80c0 -32 12 -64 92 -64c38 0 89 7 130 58z" />
    <glyph glyph-name="odieresis" unicode="&#xf6;" horiz-adv-x="513" 
d="M257 -6c-110 0 -223 69 -223 259c0 191 113 260 223 260c109 0 222 -69 222 -260c0 -190 -113 -259 -222 -259zM257 80c60 0 130 29 130 173c0 145 -70 174 -130 174c-59 0 -131 -29 -131 -174c0 -144 72 -173 131 -173zM222 640c0 -34 -27 -60 -61 -60s-60 26 -60 60
s26 61 60 61s61 -27 61 -61zM411 640c0 -34 -27 -60 -61 -60s-60 26 -60 60s26 61 60 61s61 -27 61 -61z" />
    <glyph glyph-name="dieresis" unicode="&#xa8;" horiz-adv-x="266" 
d="M99 640c0 -34 -27 -60 -61 -60s-60 26 -60 60s26 61 60 61s61 -27 61 -61zM288 640c0 -34 -27 -60 -61 -60s-60 26 -60 60s26 61 60 61s61 -27 61 -61z" />
    <glyph glyph-name="ring" unicode="&#x2da;" horiz-adv-x="190" 
d="M173 640c0 -43 -35 -78 -78 -78s-78 35 -78 78s35 78 78 78s78 -35 78 -78z" />
    <glyph glyph-name="period" unicode="." horiz-adv-x="259" 
d="M190 58c0 -34 -27 -60 -61 -60s-60 26 -60 60s26 61 60 61s61 -27 61 -61z" />
    <glyph glyph-name="slash" unicode="/" horiz-adv-x="324" 
d="M77 -6h-69l239 724h69z" />
    <glyph glyph-name="zero" unicode="0" horiz-adv-x="616" 
d="M308 -6c-131 0 -268 95 -268 362s137 362 268 362s268 -95 268 -362s-137 -362 -268 -362zM159 189l254 401c-31 31 -70 40 -105 40c-80 0 -174 -47 -174 -275c0 -71 9 -126 25 -166zM461 511l-250 -397c30 -24 65 -32 97 -32c79 0 174 47 174 274c0 66 -8 116 -21 155z
" />
    <glyph glyph-name="one" unicode="1" horiz-adv-x="455" 
d="M410 0h-360v82h134v521l-102 -86l-27 79l129 116h92v-630h134v-82z" />
    <glyph glyph-name="two" unicode="2" horiz-adv-x="503" 
d="M473 0h-443v89l262 279c51 55 71 89 71 142c0 71 -35 120 -109 120c-78 0 -123 -54 -123 -146h-94c0 150 88 234 217 234c125 0 203 -80 203 -204c0 -101 -51 -153 -104 -211l-192 -207h312v-96z" />
    <glyph glyph-name="three" unicode="3" horiz-adv-x="508" 
d="M40 198h94c0 -74 45 -116 123 -116s117 42 117 117c0 76 -40 123 -118 123h-30v86h30c69 0 106 37 106 108s-37 114 -106 114c-74 0 -114 -42 -114 -116h-94c0 132 83 204 208 204c121 0 200 -74 200 -200c0 -73 -27 -119 -77 -149c59 -34 89 -93 89 -172
c0 -131 -83 -203 -211 -203c-129 0 -217 72 -217 204z" />
    <glyph glyph-name="four" unicode="4" horiz-adv-x="510" 
d="M407 0h-92v151h-290v67l280 494h102v-479h79v-82h-79v-151zM315 233v319l-182 -319h182z" />
    <glyph glyph-name="five" unicode="5" horiz-adv-x="528" 
d="M40 178h94c0 -62 46 -96 120 -96c97 0 140 59 140 162c0 100 -41 157 -132 157c-59 0 -104 -24 -120 -65h-93l48 376h378v-96h-297l-20 -152c30 16 67 25 110 25c133 0 220 -88 220 -247s-88 -248 -235 -248c-124 0 -213 64 -213 184z" />
    <glyph glyph-name="six" unicode="6" horiz-adv-x="528" 
d="M398 712l-172 -263c13 2 27 3 42 3c133 0 220 -82 220 -229s-86 -229 -220 -229c-136 0 -228 84 -228 224c0 77 28 150 68 214l176 280h114zM267 82c85 0 127 53 127 141s-42 141 -127 141c-84 0 -133 -51 -133 -141s49 -141 133 -141z" />
    <glyph glyph-name="seven" unicode="7" horiz-adv-x="472" 
d="M174 0h-101l282 616h-339v96h440v-89z" />
    <glyph glyph-name="eight" unicode="8" horiz-adv-x="514" 
d="M380 373c59 -32 94 -91 94 -175c0 -132 -88 -204 -217 -204s-217 72 -217 204c0 84 35 143 93 175c-44 31 -69 81 -69 152c0 124 76 193 193 193s193 -69 193 -193c0 -71 -25 -121 -70 -152zM380 200c0 77 -42 125 -123 125s-123 -48 -123 -125s43 -118 123 -118
s123 41 123 118zM257 413c63 0 99 41 99 110s-36 107 -99 107s-99 -38 -99 -107s36 -110 99 -110z" />
    <glyph glyph-name="nine" unicode="9" horiz-adv-x="528" 
d="M261 348c84 0 133 51 133 141s-49 141 -133 141c-85 0 -127 -53 -127 -141s42 -141 127 -141zM244 0h-114l172 263c-14 -2 -28 -3 -42 -3c-133 0 -220 82 -220 229s86 229 221 229s227 -83 227 -228c0 -82 -29 -148 -68 -210z" />
    <glyph glyph-name="A" unicode="A" horiz-adv-x="572" 
d="M570 0h-95l-59 182h-260l-59 -182h-95l234 712h100zM387 270l-101 312l-102 -312h203z" />
    <glyph glyph-name="space" unicode=" " horiz-adv-x="240" 
 />
    <glyph glyph-name="ampersand" unicode="&#x26;" horiz-adv-x="630" 
d="M630 0h-119l-53 62c-56 -42 -116 -68 -195 -68c-139 0 -223 79 -223 201c0 105 63 170 133 208l-4 5c-40 50 -71 92 -71 152c0 90 69 158 180 158c104 0 169 -60 169 -158c0 -86 -51 -133 -119 -174l-15 -9l151 -179c31 41 43 77 44 118l75 -38c-3 -46 -17 -99 -59 -152z
M398 133l-166 197c-50 -30 -101 -65 -101 -131c0 -65 48 -110 132 -110c48 0 93 15 135 44zM256 447l15 9c54 32 84 60 84 103s-28 74 -81 74c-50 0 -81 -28 -81 -75c0 -29 12 -54 46 -92z" />
    <glyph glyph-name="grave" unicode="`" horiz-adv-x="218" 
d="M175 572h-70l-134 180h102z" />
    <glyph glyph-name="acute" unicode="&#xb4;" horiz-adv-x="218" 
d="M113 572h-70l102 180h102z" />
    <glyph glyph-name="circumflex" unicode="&#x2c6;" horiz-adv-x="191" 
d="M234 572h-74l-62 108l-68 -108h-73l103 180h75z" />
    <glyph glyph-name="caron" unicode="&#x2c7;" horiz-adv-x="191" 
d="M135 572h-75l-103 180h73l68 -108l62 108h74z" />
    <glyph glyph-name="tilde" unicode="&#x2dc;" horiz-adv-x="226" 
d="M230 708l54 -11c-10 -58 -32 -109 -93 -109c-51 0 -93 36 -142 36c-36 0 -44 -18 -51 -43l-56 11c14 67 44 109 97 109c50 0 94 -36 140 -36c31 0 40 15 51 43z" />
    <glyph glyph-name="macron" unicode="&#xaf;" horiz-adv-x="244" 
d="M268 607h-292v66h292v-66z" />
    <glyph glyph-name="breve" unicode="&#x2d8;" horiz-adv-x="241" 
d="M226 727h60c0 -103 -86 -149 -161 -149c-86 0 -162 55 -162 149h62c3 -53 42 -88 104 -88c46 0 95 30 97 88z" />
    <glyph glyph-name="hungarumlaut" unicode="&#x2dd;" horiz-adv-x="183" 
d="M177 572h-70l102 180h103zM13 572h-70l102 180h103z" />
    <glyph glyph-name="dotaccent" unicode="&#x2d9;" horiz-adv-x="253" 
d="M187 640c0 -34 -27 -60 -61 -60s-60 26 -60 60s26 61 60 61s61 -27 61 -61z" />
    <glyph glyph-name="cedilla" unicode="&#xb8;" horiz-adv-x="218" 
d="M5 -208v47c22 -10 52 -17 74 -17c30 0 49 13 49 41c0 33 -26 38 -42 39l-40 2l23 96h48l-12 -56c43 2 102 -13 102 -77c0 -61 -53 -93 -115 -93c-29 0 -63 7 -87 18z" />
    <glyph glyph-name="ogonek" unicode="&#x2db;" horiz-adv-x="229" 
d="M196 -163l8 -37c-14 -13 -40 -26 -77 -26c-57 0 -106 31 -106 93c0 65 53 109 114 133h49c-54 -30 -92 -68 -92 -119c0 -43 28 -60 58 -60c19 0 36 7 46 16z" />
    <glyph glyph-name="comma" unicode="," horiz-adv-x="259" 
d="M131 -107h-53l27 109c-22 9 -36 30 -36 56c0 34 26 61 60 61s61 -28 61 -59c0 -13 -5 -31 -10 -43z" />
    <glyph glyph-name="semicolon" unicode=";" horiz-adv-x="259" 
d="M131 -107h-53l27 109c-22 9 -36 30 -36 56c0 34 26 61 60 61s61 -28 61 -59c0 -13 -5 -31 -10 -43zM190 271c0 -34 -27 -60 -61 -60s-60 26 -60 60s26 61 60 61s61 -27 61 -61z" />
    <glyph glyph-name="colon" unicode=":" horiz-adv-x="259" 
d="M190 58c0 -34 -27 -60 -61 -60s-60 26 -60 60s26 61 60 61s61 -27 61 -61zM190 271c0 -34 -27 -60 -61 -60s-60 26 -60 60s26 61 60 61s61 -27 61 -61z" />
    <glyph glyph-name="ellipsis" unicode="&#x2026;" horiz-adv-x="1000" 
d="M237 58c0 -34 -27 -60 -61 -60s-60 26 -60 60s26 61 60 61s61 -27 61 -61zM560 58c0 -34 -27 -60 -61 -60s-60 26 -60 60s26 61 60 61s61 -27 61 -61zM884 58c0 -34 -27 -60 -61 -60s-60 26 -60 60s26 61 60 61s61 -27 61 -61z" />
    <glyph glyph-name="hyphen" unicode="-" horiz-adv-x="407" 
d="M354 238h-301v78h301v-78z" />
    <glyph glyph-name="exclam" unicode="!" horiz-adv-x="251" 
d="M149 176h-51l-33 337l5 199h108l5 -199zM186 58c0 -34 -27 -60 -61 -60s-60 26 -60 60s26 61 60 61s61 -27 61 -61z" />
    <glyph glyph-name="exclamdown" unicode="&#xa1;" horiz-adv-x="251" 
d="M178 -205h-108l-5 199l33 337h51l34 -337zM125 388c-34 0 -60 27 -60 61s26 60 60 60s61 -26 61 -60s-27 -61 -61 -61z" />
    <glyph glyph-name="question" unicode="?" horiz-adv-x="481" 
d="M263 185h-94v44c0 36 5 60 26 86l61 82c43 57 69 94 69 135c0 56 -33 98 -98 98c-67 0 -104 -46 -104 -126h-94c0 138 78 214 200 214c120 0 200 -73 200 -181c0 -93 -61 -153 -114 -214l-36 -43c-14 -17 -16 -37 -16 -59v-36zM277 58c0 -34 -27 -60 -61 -60
s-60 26 -60 60s26 61 60 61s61 -27 61 -61z" />
    <glyph glyph-name="questiondown" unicode="&#xbf;" horiz-adv-x="481" 
d="M358 3h94c0 -138 -78 -214 -200 -214c-120 0 -200 73 -200 181c0 93 61 153 114 214l36 43c14 17 16 37 16 59v36h94v-44c0 -36 -5 -60 -26 -86l-61 -82c-43 -57 -69 -94 -69 -135c0 -56 33 -98 98 -98c67 0 104 46 104 126zM265 388c-34 0 -61 27 -61 61s27 60 61 60
s60 -26 60 -60s-26 -61 -60 -61z" />
    <glyph glyph-name="quoteleft" unicode="&#x2018;" horiz-adv-x="259" 
d="M79 595l49 124h53l-27 -109c22 -9 36 -30 36 -56c0 -34 -26 -61 -60 -61s-61 28 -61 59c0 13 5 31 10 43z" />
    <glyph glyph-name="quoteright" unicode="&#x2019;" horiz-adv-x="259" 
d="M131 493h-53l27 109c-22 9 -36 30 -36 56c0 34 26 61 60 61s61 -28 61 -59c0 -13 -5 -31 -10 -43z" />
    <glyph glyph-name="quotedblleft" unicode="&#x201c;" horiz-adv-x="352" 
d="M203 595l49 124h53l-27 -109c22 -9 36 -30 36 -56c0 -34 -26 -61 -60 -61s-61 28 -61 59c0 13 5 31 10 43zM48 595l49 124h53l-27 -109c22 -9 36 -30 36 -56c0 -34 -26 -61 -60 -61s-61 28 -61 59c0 13 5 31 10 43z" />
    <glyph glyph-name="quotedblright" unicode="&#x201d;" horiz-adv-x="352" 
d="M100 493h-53l27 109c-22 9 -36 30 -36 56c0 34 26 61 60 61s61 -28 61 -59c0 -13 -5 -31 -10 -43zM255 493h-53l27 109c-22 9 -36 30 -36 56c0 34 26 61 60 61s61 -28 61 -59c0 -13 -5 -31 -10 -43z" />
    <glyph glyph-name="quotesinglbase" unicode="&#x201a;" horiz-adv-x="259" 
d="M131 -107h-53l27 109c-22 9 -36 30 -36 56c0 34 26 61 60 61s61 -28 61 -59c0 -13 -5 -31 -10 -43z" />
    <glyph glyph-name="quotedblbase" unicode="&#x201e;" horiz-adv-x="352" 
d="M100 -107h-53l27 109c-22 9 -36 30 -36 56c0 34 26 61 60 61s61 -28 61 -59c0 -13 -5 -31 -10 -43zM255 -107h-53l27 109c-22 9 -36 30 -36 56c0 34 26 61 60 61s61 -28 61 -59c0 -13 -5 -31 -10 -43z" />
    <glyph glyph-name="guilsinglleft" unicode="&#x2039;" horiz-adv-x="314" 
d="M268 139l-23 -59l-199 197l199 197l23 -59l-120 -138z" />
    <glyph glyph-name="guilsinglright" unicode="&#x203a;" horiz-adv-x="314" 
d="M69 474l199 -197l-199 -197l-23 59l120 138l-120 138z" />
    <glyph glyph-name="guillemotleft" unicode="&#xab;" 
d="M269 139l-23 -59l-199 197l199 197l23 -59l-120 -138zM451 139l-23 -59l-199 197l199 197l23 -59l-120 -138z" />
    <glyph glyph-name="guillemotright" unicode="&#xbb;" 
d="M252 474l199 -197l-199 -197l-23 59l120 138l-120 138zM70 474l199 -197l-199 -197l-23 59l120 138l-120 138z" />
    <glyph glyph-name="bar" unicode="|" horiz-adv-x="215" 
d="M143 -250h-71v1000h71v-1000z" />
    <glyph glyph-name="endash" unicode="&#x2013;" horiz-adv-x="500" 
d="M500 238h-500v78h500v-78z" />
    <glyph glyph-name="emdash" unicode="&#x2014;" horiz-adv-x="981" 
d="M981 238h-981v78h981v-78z" />
    <glyph glyph-name="bullet" unicode="&#x2022;" horiz-adv-x="482" 
d="M241 187c-93 0 -169 76 -169 169s76 169 169 169s169 -76 169 -169s-76 -169 -169 -169z" />
    <glyph glyph-name="periodcentered" unicode="&#xb7;" horiz-adv-x="227" 
d="M174 292c0 -34 -27 -60 -61 -60s-60 26 -60 60s26 61 60 61s61 -27 61 -61z" />
    <glyph glyph-name="parenleft" unicode="(" horiz-adv-x="296" 
d="M276 -200h-51c-104 130 -165 343 -165 497c0 169 74 352 164 476h52c-59 -130 -115 -292 -115 -470c0 -170 51 -354 115 -503z" />
    <glyph glyph-name="parenright" unicode=")" horiz-adv-x="296" 
d="M71 -200h-51c64 149 115 333 115 503c0 178 -56 340 -115 470h52c90 -124 164 -307 164 -476c0 -154 -61 -367 -165 -497z" />
    <glyph glyph-name="bracketleft" unicode="[" horiz-adv-x="307" 
d="M286 -200h-214v974h214v-64h-119v-846h119v-64z" />
    <glyph glyph-name="bracketright" unicode="]" horiz-adv-x="307" 
d="M235 -200h-214v64h119v846h-119v64h214v-974z" />
    <glyph glyph-name="braceleft" unicode="{" horiz-adv-x="278" 
d="M275 -200h-85c-53 0 -98 31 -98 101v233c0 65 -27 120 -78 120v66c51 0 78 55 78 120v233c0 70 45 101 98 101h85v-64h-44c-32 0 -44 -23 -44 -65v-229c0 -88 -66 -123 -83 -128v-2c17 -5 83 -40 83 -128v-229c0 -42 12 -65 44 -65h44v-64z" />
    <glyph glyph-name="braceright" unicode="}" horiz-adv-x="267" 
d="M88 -200h-85v64h44c32 0 44 23 44 65v229c0 88 66 123 83 128v2c-17 5 -83 40 -83 128v229c0 42 -12 65 -44 65h-44v64h85c53 0 98 -31 98 -101v-233c0 -65 27 -120 78 -120v-66c-51 0 -78 -55 -78 -120v-233c0 -70 -45 -101 -98 -101z" />
    <glyph glyph-name="asterisk" unicode="*" horiz-adv-x="356" 
d="M292 466l-49 23l-43 36l10 -55l-4 -54h-56l-4 54l9 54l-42 -35l-49 -23l-28 48l45 31l52 18l-52 20l-45 31l28 48l49 -23l42 -37l-9 56l4 54h56l4 -54l-11 -57l44 38l49 23l28 -48l-45 -31l-53 -20l53 -18l45 -31z" />
    <glyph glyph-name="dagger" unicode="&#x2020;" horiz-adv-x="458" 
d="M256 -169h-54l-16 429l21 146l-89 -20l-96 11v64l96 11l89 -20l-21 146l11 114h64l11 -114l-22 -146l90 20l96 -11v-64l-96 -11l-90 20l22 -146z" />
    <glyph glyph-name="daggerdbl" unicode="&#x2021;" horiz-adv-x="458" 
d="M261 -168h-64l-11 114l21 146l-89 -20l-96 11v64l96 11l89 -20l-21 134l21 134l-89 -20l-96 11v64l96 11l89 -20l-21 146l11 114h64l11 -114l-22 -146l90 20l96 -11v-64l-96 -11l-90 20l22 -134l-22 -134l90 20l96 -11v-64l-96 -11l-90 20l22 -146z" />
    <glyph glyph-name="section" unicode="&#xa7;" horiz-adv-x="473" 
d="M46 -46l80 21c24 -54 65 -73 110 -73c51 0 92 24 92 80c0 59 -44 60 -148 109c-65 31 -133 72 -133 181c0 83 40 135 101 159c-46 26 -79 59 -79 125c0 97 74 162 175 162c79 0 142 -40 164 -124l-80 -21c-19 50 -47 69 -88 69c-53 0 -89 -32 -89 -77
c0 -52 47 -63 143 -109c65 -31 133 -67 133 -176c0 -85 -42 -138 -104 -163c56 -30 89 -64 89 -131c0 -104 -78 -160 -182 -160c-95 0 -162 47 -184 128zM232 391c-58 -3 -101 -39 -101 -123c0 -53 17 -69 107 -111c60 2 105 41 105 128c0 58 -20 66 -111 106z" />
    <glyph glyph-name="paragraph" unicode="&#xb6;" horiz-adv-x="625" 
d="M475 -168h-68v819h-80v-819h-68v458c-117 0 -211 94 -211 211c0 114 91 211 219 211h244v-61h-36v-819z" />
    <glyph glyph-name="asciicircum" unicode="^" horiz-adv-x="600" 
d="M550 283h-74l-175 349h-2l-175 -349h-74l217 429h66z" />
    <glyph glyph-name="asciitilde" unicode="~" horiz-adv-x="580" 
d="M485 319l26 -63c-20 -37 -54 -77 -113 -77c-78 0 -150 69 -214 69c-35 0 -57 -20 -89 -61l-26 62c20 37 54 77 114 77c78 0 146 -69 212 -69c41 0 63 27 90 62z" />
    <glyph glyph-name="brokenbar" unicode="&#xa6;" horiz-adv-x="205" 
d="M133 329h-61v346h61v-346zM133 -175h-61v382h61v-382z" />
    <glyph glyph-name="backslash" unicode="\" horiz-adv-x="324" 
d="M316 -6h-69l-239 724h69z" />
    <glyph glyph-name="underscore" unicode="_" horiz-adv-x="500" 
d="M500 -128h-500v56h500v-56z" />
    <glyph glyph-name="quotesingle" unicode="'" horiz-adv-x="248" 
d="M149 536h-50l-18 112l6 64h74l6 -64z" />
    <glyph glyph-name="quotedbl" unicode="&#x22;" horiz-adv-x="337" 
d="M130 532h-50l-18 116l6 64h74l6 -64zM257 532h-50l-18 116l6 64h74l6 -64z" />
    <glyph glyph-name="at" unicode="@" horiz-adv-x="748" 
d="M610 -43l15 -50c-72 -33 -157 -59 -249 -59c-182 0 -338 101 -338 309c0 213 164 376 386 376c167 0 286 -92 286 -282c0 -154 -81 -257 -174 -257c-59 0 -88 42 -98 84c-48 -63 -98 -84 -138 -84c-75 0 -105 75 -105 144c0 123 94 255 226 255c37 0 81 -10 121 -29
l-51 -248c0 -42 19 -68 54 -68c77 0 107 129 107 208c0 153 -108 223 -237 223c-187 0 -315 -146 -315 -318c0 -174 132 -257 291 -257c90 0 159 27 219 53zM442 194l29 126c-13 8 -30 17 -58 17c-104 0 -153 -119 -153 -201c0 -68 34 -83 63 -83c74 0 110 101 119 141z" />
    <glyph glyph-name="copyright" unicode="&#xa9;" horiz-adv-x="800" 
d="M400 -6c-200 0 -362 162 -362 362s162 362 362 362s362 -162 362 -362s-162 -362 -362 -362zM400 46c174 0 304 129 304 310s-130 310 -304 310s-304 -129 -304 -310s130 -310 304 -310zM528 294l73 -15c-38 -111 -117 -154 -201 -154c-99 0 -212 60 -212 231
c0 172 113 231 212 231c84 0 163 -43 201 -154l-72 -17c-26 79 -78 100 -129 100c-58 0 -136 -27 -136 -160s79 -159 137 -159c52 0 101 21 127 97z" />
    <glyph glyph-name="registered" unicode="&#xae;" horiz-adv-x="477" 
d="M270 504l54 -87h-49l-56 85h-6v-85h-43v212h71c46 0 70 -27 70 -65c0 -31 -15 -53 -41 -60zM213 541h26c19 0 29 7 29 23c0 14 -10 22 -29 22h-26v-45zM439 517c0 -111 -90 -200 -201 -200s-200 89 -200 200s89 201 200 201s201 -90 201 -201zM399 517
c0 88 -73 161 -161 161s-160 -73 -160 -161s72 -160 160 -160s161 72 161 160z" />
    <glyph glyph-name="trademark" unicode="&#x2122;" horiz-adv-x="626" 
d="M178 412h-52v254h-86v52h223v-52h-85v-254zM550 412h-53v200l-52 -98h-33l-53 98v-200h-54v306h57l66 -124l67 124h55v-306z" />
    <glyph glyph-name="currency" unicode="&#xa4;" horiz-adv-x="554" 
d="M476 100l-49 50c-43 -33 -95 -50 -150 -50c-58 0 -110 19 -152 50l-48 -50l-47 47l48 49c-32 41 -51 95 -51 154c0 55 19 107 50 150l-50 49l50 51l48 -50c42 31 94 50 152 50c57 0 110 -19 152 -52l50 51l47 -49l-50 -48c32 -43 51 -95 51 -152c0 -58 -19 -110 -51 -152
l50 -48zM471 350c0 109 -85 194 -194 194c-110 0 -194 -85 -194 -194c0 -110 84 -194 194 -194c109 0 194 84 194 194z" />
    <glyph glyph-name="Euro" unicode="&#x20ac;" horiz-adv-x="591" 
d="M476 201l81 -18c-41 -138 -132 -189 -220 -189c-102 0 -212 70 -241 259h-81l10 65h65c-1 12 -1 25 -1 38c0 15 0 30 1 44h-65l10 65h62c31 184 140 253 240 253c88 0 179 -51 220 -189l-80 -22c-29 98 -87 123 -140 123c-56 0 -124 -32 -147 -165h213l-10 -65h-210
c-1 -14 -1 -29 -1 -44c0 -14 0 -26 1 -38h200l-10 -65h-184c23 -139 92 -171 149 -171c52 0 109 24 138 119z" />
    <glyph glyph-name="dollar" unicode="$" horiz-adv-x="492" 
d="M276 -94h-51v89c-112 10 -191 90 -191 217l73 18c8 -84 47 -137 118 -147v240l-52 23c-73 32 -121 80 -121 173c0 115 75 187 173 198v71h51v-72c96 -11 161 -83 161 -200l-74 -18c-7 76 -39 118 -87 129v-227l50 -22c75 -33 132 -77 132 -182c0 -121 -78 -191 -182 -201
v-89zM276 300v-216c47 9 89 40 89 105s-42 89 -89 111zM225 422v205c-44 -9 -80 -43 -80 -99c0 -62 42 -87 80 -106z" />
    <glyph glyph-name="cent" unicode="&#xa2;" horiz-adv-x="478" 
d="M277 -98h-40v93c-107 9 -203 80 -203 258s97 250 203 259v91h40v-91c81 -5 145 -46 167 -123l-80 -21c-19 35 -49 53 -87 58v-345c38 5 68 24 87 62l80 -21c-21 -76 -81 -122 -167 -127v-93zM237 81v344c-55 -7 -111 -44 -111 -172s57 -166 111 -172z" />
    <glyph glyph-name="sterling" unicode="&#xa3;" horiz-adv-x="456" 
d="M426 0h-394l10 88h28c30 34 61 82 61 128c0 23 -8 53 -19 85h-83v65h59c-21 54 -41 109 -41 149c0 128 85 203 193 203c107 0 184 -75 184 -202l-74 -18c-8 95 -58 132 -110 132c-54 0 -100 -39 -100 -116c0 -52 20 -101 40 -148h183v-65h-158c7 -23 12 -45 12 -67
c0 -50 -23 -99 -60 -146h289z" />
    <glyph glyph-name="florin" unicode="&#x192;" horiz-adv-x="365" 
d="M12 -176l14 83c54 0 81 44 86 107l26 360h-63l7 78h62l6 76c9 107 61 190 159 190c15 0 27 -2 44 -6l-6 -79c-7 2 -14 2 -21 2c-56 0 -81 -46 -86 -107l-6 -76h96l-5 -78h-97l-26 -360c-7 -100 -60 -190 -190 -190z" />
    <glyph glyph-name="yen" unicode="&#xa5;" horiz-adv-x="466" 
d="M279 0h-92v181h-151v65h151v39l-16 36h-135v65h107l-141 326h98l133 -323l133 323h98l-142 -326h108v-65h-136l-15 -36v-39h151v-65h-151v-181z" />
    <glyph glyph-name="ordfeminine" unicode="&#xaa;" horiz-adv-x="312" 
d="M286 365h-63l-2 22c-26 -19 -58 -26 -92 -26c-67 0 -123 30 -123 102c0 67 46 102 125 107l88 5v15c0 42 -23 63 -67 63c-30 0 -57 -10 -74 -31l-55 17c15 45 68 79 132 79c82 0 131 -53 131 -122v-231zM219 462v60l-88 -5c-40 -2 -57 -21 -57 -52c0 -21 9 -41 60 -41
c25 0 59 6 85 38zM286 241h-276v63h276v-63z" />
    <glyph glyph-name="ordmasculine" unicode="&#xba;" horiz-adv-x="338" 
d="M169 361c-75 0 -154 47 -154 177c0 131 79 180 154 180s154 -49 154 -180c0 -130 -79 -177 -154 -177zM169 424c40 0 86 19 86 114c0 97 -46 115 -86 115s-85 -18 -85 -115c0 -95 45 -114 85 -114zM308 241h-278v63h278v-63z" />
    <glyph glyph-name="numbersign" unicode="#" horiz-adv-x="491" 
d="M330 0h-55l24 168h-148l-24 -168h-55l24 168h-93l8 57h93l26 191h-94l8 57h93l22 155h55l-21 -155h147l22 155h55l-22 -155h93l-8 -57h-92l-26 -191h93l-7 -57h-93zM307 225l26 191h-148l-26 -191h148z" />
    <glyph glyph-name="fraction" unicode="&#x2044;" horiz-adv-x="167" 
d="M-93 -6h-66l419 724h66z" />
    <glyph glyph-name="onequarter" unicode="&#xbc;" horiz-adv-x="697" 
d="M247 291v56h-58v367h-61l-77 -71l18 -55l56 47v-288h-56v-56h178zM619 0v87h46v56h-46v101h-62v-101h-109v2l184 274h-67l-175 -260v-72h167v-87h62zM202 -6h-66l419 724h66z" />
    <glyph glyph-name="onehalf" unicode="&#xbd;" horiz-adv-x="758" 
d="M247 291v56h-58v367h-61l-77 -71l18 -55l56 47v-288h-56v-56h178zM726 0v64h-175l105 113c32 34 61 65 61 126c0 75 -48 124 -123 124c-78 0 -132 -53 -132 -146h65c0 53 25 85 67 85c41 0 59 -26 59 -64c0 -31 -12 -51 -41 -82l-153 -163v-57h267zM202 -6h-66l419 724
h66z" />
    <glyph glyph-name="threequarters" unicode="&#xbe;" horiz-adv-x="682" 
d="M5 414h65c0 -42 25 -67 68 -67s62 23 62 63c0 42 -20 67 -63 67h-22v60h22c37 0 57 19 57 58s-20 62 -57 62c-41 0 -62 -24 -62 -67h-65c0 81 51 128 127 128c73 0 119 -45 119 -121c0 -42 -12 -68 -39 -88c30 -21 47 -55 47 -100c0 -80 -49 -121 -126 -121
c-80 0 -133 42 -133 126zM604 87v-87h-62v87h-167v72l175 260h67l-184 -274v-2h109v101h62v-101h46v-56h-46zM187 -6h-66l419 724h66z" />
    <glyph glyph-name="percent" unicode="%" horiz-adv-x="733" 
d="M188 -6h-66l419 724h66zM187 363c65 0 135 45 135 176c0 132 -70 179 -135 179c-67 0 -136 -47 -136 -179c0 -131 69 -176 136 -176zM187 423c-32 0 -70 20 -70 116c0 95 38 116 70 116c31 0 70 -21 70 -116c0 -96 -39 -116 -70 -116zM547 -6c65 0 135 45 135 176
c0 132 -70 179 -135 179c-67 0 -136 -47 -136 -179c0 -131 69 -176 136 -176zM547 54c-32 0 -70 20 -70 116c0 95 38 116 70 116c31 0 70 -21 70 -116c0 -96 -39 -116 -70 -116z" />
    <glyph glyph-name="perthousand" unicode="&#x2030;" horiz-adv-x="1039" 
d="M186 -6h-66l419 724h66zM185 363c65 0 135 45 135 176c0 132 -70 179 -135 179c-67 0 -136 -47 -136 -179c0 -131 69 -176 136 -176zM185 423c-32 0 -70 20 -70 116c0 95 38 116 70 116c31 0 70 -21 70 -116c0 -96 -39 -116 -70 -116zM545 -6c65 0 135 45 135 176
c0 132 -70 179 -135 179c-67 0 -136 -47 -136 -179c0 -131 69 -176 136 -176zM545 54c-32 0 -70 20 -70 116c0 95 38 116 70 116c31 0 70 -21 70 -116c0 -96 -39 -116 -70 -116zM855 -6c65 0 135 45 135 176c0 132 -70 179 -135 179c-67 0 -136 -47 -136 -179
c0 -131 69 -176 136 -176zM855 54c-32 0 -70 20 -70 116c0 95 38 116 70 116c31 0 70 -21 70 -116c0 -96 -39 -116 -70 -116z" />
    <glyph glyph-name="plus" unicode="+" horiz-adv-x="549" 
d="M314 90h-78v188h-189v78h189v189h78v-189h188v-78h-188v-188z" />
    <glyph glyph-name="minus" unicode="&#x2212;" horiz-adv-x="549" 
d="M502 278h-455v78h455v-78z" />
    <glyph glyph-name="plusminus" unicode="&#xb1;" horiz-adv-x="549" 
d="M502 318h-188v-118h-78v118h-189v78h189v149h78v-149h188v-78zM502 90h-455v78h455v-78z" />
    <glyph glyph-name="multiply" unicode="&#xd7;" horiz-adv-x="528" 
d="M481 156l-56 -55l-161 161l-162 -162l-55 56l162 161l-162 162l55 56l162 -162l161 161l56 -55l-162 -162z" />
    <glyph glyph-name="divide" unicode="&#xf7;" horiz-adv-x="549" 
d="M275 415c-37 0 -67 30 -67 67s30 67 67 67s67 -30 67 -67s-30 -67 -67 -67zM275 86c-37 0 -67 30 -67 67s30 67 67 67s67 -30 67 -67s-30 -67 -67 -67zM502 278h-455v78h455v-78z" />
    <glyph glyph-name="equal" unicode="=" horiz-adv-x="549" 
d="M502 378h-455v78h455v-78zM502 178h-455v78h455v-78z" />
    <glyph glyph-name="less" unicode="&#x3c;" horiz-adv-x="549" 
d="M502 87l-455 194v73l455 194v-84l-355 -146v-1l355 -146v-84z" />
    <glyph glyph-name="greater" unicode="&#x3e;" horiz-adv-x="549" 
d="M502 281l-455 -194v84l355 146v1l-355 146v84l455 -194v-73z" />
    <glyph glyph-name="degree" unicode="&#xb0;" horiz-adv-x="325" 
d="M268 612c0 -59 -47 -105 -106 -105s-105 46 -105 105s46 106 105 106s106 -47 106 -106zM162 552c35 0 60 26 60 60c0 35 -25 60 -60 60c-34 0 -60 -25 -60 -60c0 -34 26 -60 60 -60z" />
    <glyph glyph-name="g.alt" horiz-adv-x="530" 
d="M231 127h86c98 0 179 -51 179 -160c0 -94 -60 -178 -230 -178c-172 0 -232 86 -232 168c0 59 31 108 74 136c-36 25 -45 54 -45 74c0 32 23 65 65 88c-21 27 -32 61 -32 98c0 88 66 160 170 160c38 0 72 -10 99 -28l98 24l14 -67l-62 -10c14 -23 21 -50 21 -79
c0 -87 -66 -160 -170 -160c-33 0 -62 7 -86 19c-23 -10 -36 -21 -36 -39c0 -34 42 -46 87 -46zM307 51h-76c-81 0 -110 -45 -110 -93c0 -43 24 -91 145 -91c123 0 143 49 143 98c0 64 -35 86 -102 86zM361 353c0 46 -33 85 -94 85s-95 -39 -95 -85s34 -86 95 -86
s94 40 94 86z" />
    <glyph glyph-name="uni2117" unicode="&#x2117;" horiz-adv-x="800" 
d="M351 130h-71v454h150c95 0 148 -55 148 -139s-53 -137 -148 -137h-79v-178zM351 378h75c49 0 78 23 78 67c0 45 -29 67 -78 67h-75v-134zM400 -6c-200 0 -362 162 -362 362s162 362 362 362s362 -162 362 -362s-162 -362 -362 -362zM400 46c174 0 304 129 304 310
s-130 310 -304 310s-304 -129 -304 -310s130 -310 304 -310z" />
    <glyph glyph-name="litre" unicode="&#x2113;" horiz-adv-x="419" 
d="M350 120l37 -48c-40 -57 -88 -86 -146 -86c-98 0 -139 71 -139 169v35c-12 -12 -36 -39 -48 -46l-33 57c28 26 55 51 80 77v258c0 142 64 214 144 214c70 0 115 -60 115 -153c0 -111 -57 -220 -159 -330v-66c0 -104 19 -136 63 -136c31 0 60 25 86 55zM201 544v-181
c54 73 85 157 85 234c0 49 -14 79 -40 79c-25 0 -45 -40 -45 -132z" />
    <glyph glyph-name="estimated" unicode="&#x212e;" horiz-adv-x="746" 
d="M617 129l33 -7c-67 -91 -158 -139 -277 -139c-192 0 -334 143 -334 322c0 180 142 323 334 323c184 0 335 -126 335 -296c0 -30 2 -32 -32 -32h-473c-34 0 -32 -2 -32 -32v-131c0 -88 126 -126 203 -126c94 0 185 39 243 118zM577 360v125c0 64 -91 115 -203 115
s-203 -51 -203 -115v-125c0 -30 -2 -32 32 -32h342c34 0 32 2 32 32z" />
    <glyph glyph-name="S.alt" horiz-adv-x="576" 
d="M510 516l-82 -18c-10 90 -59 132 -137 132c-70 0 -136 -34 -136 -105c0 -59 47 -84 101 -100c96 -28 125 -37 149 -45c75 -26 141 -77 141 -180c0 -135 -112 -206 -255 -206c-154 0 -261 82 -261 218l82 18c13 -99 75 -148 175 -148c79 0 159 30 159 109
c0 67 -56 94 -121 112c-26 7 -115 33 -143 43c-69 24 -126 79 -126 172c0 126 103 200 233 200s221 -75 221 -202z" />
    <glyph glyph-name="Agrave" unicode="&#xc0;" horiz-adv-x="572" 
d="M570 0h-95l-59 182h-260l-59 -182h-95l234 712h100zM387 270l-101 312l-102 -312h203zM360 772h-70l-134 180h102z" />
    <glyph glyph-name="Aacute" unicode="&#xc1;" horiz-adv-x="572" 
d="M570 0h-95l-59 182h-260l-59 -182h-95l234 712h100zM387 270l-101 312l-102 -312h203zM286 772h-70l102 180h102z" />
    <glyph glyph-name="Acircumflex" unicode="&#xc2;" horiz-adv-x="572" 
d="M570 0h-95l-59 182h-260l-59 -182h-95l234 712h100zM387 270l-101 312l-102 -312h203zM426 772h-74l-62 108l-68 -108h-73l103 180h75z" />
    <glyph glyph-name="Atilde" unicode="&#xc3;" horiz-adv-x="572" 
d="M570 0h-95l-59 182h-260l-59 -182h-95l234 712h100zM387 270l-101 312l-102 -312h203zM415 908l54 -11c-10 -58 -32 -109 -93 -109c-51 0 -93 36 -142 36c-36 0 -44 -18 -51 -43l-56 11c14 67 44 109 97 109c50 0 94 -36 140 -36c31 0 40 15 51 43z" />
    <glyph glyph-name="AE" unicode="&#xc6;" horiz-adv-x="905" 
d="M875 0h-434v315h-183l-174 -315h-94l396 712h489v-88h-342v-221h251v-88h-251v-227h342v-88zM441 403v221h-12l-123 -221h135z" />
    <glyph glyph-name="Ccedilla" unicode="&#xc7;" horiz-adv-x="610" 
d="M480 201l90 -18c-46 -138 -147 -189 -244 -189c-132 0 -276 96 -276 362s144 362 276 362c97 0 198 -51 244 -189l-89 -22c-32 98 -96 123 -155 123c-81 0 -182 -48 -182 -274c0 -227 101 -274 183 -274c58 0 121 24 153 119zM243 -208v47c22 -10 52 -17 74 -17
c30 0 49 13 49 41c0 33 -26 38 -42 39l-40 2l23 96h48l-12 -56c43 2 102 -13 102 -77c0 -61 -53 -93 -115 -93c-29 0 -63 7 -87 18z" />
    <glyph glyph-name="Egrave" unicode="&#xc8;" horiz-adv-x="524" 
d="M494 0h-434v712h434v-88h-342v-221h211v-88h-211v-227h342v-88zM382 772h-70l-134 180h102z" />
    <glyph glyph-name="Eacute" unicode="&#xc9;" horiz-adv-x="524" 
d="M494 0h-434v712h434v-88h-342v-221h211v-88h-211v-227h342v-88zM248 772h-70l102 180h102z" />
    <glyph glyph-name="Ecircumflex" unicode="&#xca;" horiz-adv-x="524" 
d="M494 0h-434v712h434v-88h-342v-221h211v-88h-211v-227h342v-88zM419 772h-74l-62 108l-68 -108h-73l103 180h75z" />
    <glyph glyph-name="Edieresis" unicode="&#xcb;" horiz-adv-x="524" 
d="M494 0h-434v712h434v-88h-342v-221h211v-88h-211v-227h342v-88zM246 840c0 -34 -27 -60 -61 -60s-60 26 -60 60s26 61 60 61s61 -27 61 -61zM435 840c0 -34 -27 -60 -61 -60s-60 26 -60 60s26 61 60 61s61 -27 61 -61z" />
    <glyph glyph-name="Igrave" unicode="&#xcc;" horiz-adv-x="430" 
d="M395 0h-360v72h134v568h-134v72h360v-72h-134v-568h134v-72zM304 772h-70l-134 180h102z" />
    <glyph glyph-name="Iacute" unicode="&#xcd;" horiz-adv-x="430" 
d="M395 0h-360v72h134v568h-134v72h360v-72h-134v-568h134v-72zM170 772h-70l102 180h102z" />
    <glyph glyph-name="Icircumflex" unicode="&#xce;" horiz-adv-x="430" 
d="M395 0h-360v72h134v568h-134v72h360v-72h-134v-568h134v-72zM351 772h-74l-62 108l-68 -108h-73l103 180h75z" />
    <glyph glyph-name="Idieresis" unicode="&#xcf;" horiz-adv-x="430" 
d="M395 0h-360v72h134v568h-134v72h360v-72h-134v-568h134v-72zM181 840c0 -34 -27 -60 -61 -60s-60 26 -60 60s26 61 60 61s61 -27 61 -61zM370 840c0 -34 -27 -60 -61 -60s-60 26 -60 60s26 61 60 61s61 -27 61 -61z" />
    <glyph glyph-name="Scaron" unicode="&#x160;" horiz-adv-x="532" 
d="M284 307l-99 39c-81 32 -134 80 -134 173c0 125 97 199 220 199s207 -75 207 -202l-82 -18c-9 90 -57 132 -127 132c-64 0 -124 -35 -124 -102c0 -66 57 -90 106 -109l104 -41c83 -33 147 -77 147 -182c0 -131 -102 -202 -231 -202c-139 0 -241 82 -241 218l82 18
c10 -92 61 -148 156 -148c69 0 139 30 139 107c0 71 -59 93 -123 118zM313 772h-75l-103 180h73l68 -108l62 108h74z" />
    <glyph glyph-name="Zcaron" unicode="&#x17d;" horiz-adv-x="512" 
d="M481 0h-451v82l337 542h-321v88h436v-73l-342 -551h341v-88zM307 772h-75l-103 180h73l68 -108l62 108h74z" />
    <glyph glyph-name="Ydieresis" unicode="&#x178;" horiz-adv-x="526" 
d="M309 0h-92v275l-215 437h98l163 -323l163 323h98l-215 -437v-275zM229 840c0 -34 -27 -60 -61 -60s-60 26 -60 60s26 61 60 61s61 -27 61 -61zM418 840c0 -34 -27 -60 -61 -60s-60 26 -60 60s26 61 60 61s61 -27 61 -61z" />
    <glyph glyph-name="Yacute" unicode="&#xdd;" horiz-adv-x="526" 
d="M309 0h-92v275l-215 437h98l163 -323l163 323h98l-215 -437v-275zM278 772h-70l102 180h102z" />
    <glyph glyph-name="Eth" unicode="&#xd0;" horiz-adv-x="601" 
d="M286 0h-226v326h-54v75h54v311h216c132 0 275 -95 275 -357c0 -258 -138 -355 -265 -355zM152 88h124c81 0 181 48 181 265c0 224 -106 271 -191 271h-114v-223h184v-75h-184v-238z" />
    <glyph glyph-name="Thorn" unicode="&#xde;" horiz-adv-x="546" 
d="M152 0h-92v712h92v-114h140c144 0 224 -85 224 -215s-80 -210 -224 -210h-140v-173zM152 261h133c85 0 137 39 137 122s-52 127 -137 127h-133v-249z" />
    <glyph glyph-name="G.alt" horiz-adv-x="624" 
d="M574 352v-88c0 -206 -133 -270 -244 -270c-137 0 -280 96 -280 362s144 362 275 362c93 0 190 -49 235 -189l-89 -22c-32 104 -96 123 -146 123c-80 0 -181 -48 -181 -275s101 -273 185 -273c67 0 151 29 151 182h-151v88h245z" />
    <glyph glyph-name="Lslash" unicode="&#x141;" horiz-adv-x="451" 
d="M421 0h-361v305l-54 -27v82l54 27v325h92v-275l121 62v-82l-121 -61v-268h269v-88z" />
    <glyph glyph-name="Ograve" unicode="&#xd2;" horiz-adv-x="656" 
d="M328 -6c-135 0 -278 96 -278 362s143 362 278 362s278 -96 278 -362s-143 -362 -278 -362zM328 82c84 0 184 47 184 274c0 226 -100 274 -184 274s-184 -48 -184 -274c0 -227 100 -274 184 -274zM438 772h-70l-134 180h102z" />
    <glyph glyph-name="Oacute" unicode="&#xd3;" horiz-adv-x="656" 
d="M328 -6c-135 0 -278 96 -278 362s143 362 278 362s278 -96 278 -362s-143 -362 -278 -362zM328 82c84 0 184 47 184 274c0 226 -100 274 -184 274s-184 -48 -184 -274c0 -227 100 -274 184 -274zM304 772h-70l102 180h102z" />
    <glyph glyph-name="Ocircumflex" unicode="&#xd4;" horiz-adv-x="656" 
d="M328 -6c-135 0 -278 96 -278 362s143 362 278 362s278 -96 278 -362s-143 -362 -278 -362zM328 82c84 0 184 47 184 274c0 226 -100 274 -184 274s-184 -48 -184 -274c0 -227 100 -274 184 -274zM474 772h-74l-62 108l-68 -108h-73l103 180h75z" />
    <glyph glyph-name="Otilde" unicode="&#xd5;" horiz-adv-x="656" 
d="M328 -6c-135 0 -278 96 -278 362s143 362 278 362s278 -96 278 -362s-143 -362 -278 -362zM328 82c84 0 184 47 184 274c0 226 -100 274 -184 274s-184 -48 -184 -274c0 -227 100 -274 184 -274zM453 908l54 -11c-10 -58 -32 -109 -93 -109c-51 0 -93 36 -142 36
c-36 0 -44 -18 -51 -43l-56 11c14 67 44 109 97 109c50 0 94 -36 140 -36c31 0 40 15 51 43z" />
    <glyph glyph-name="Oslash" unicode="&#xd8;" horiz-adv-x="656" 
d="M137 -40l-53 31l50 88c-50 58 -84 147 -84 277c0 266 143 362 278 362c51 0 103 -14 148 -46l44 76l53 -30l-50 -87c49 -58 83 -147 83 -275c0 -266 -143 -362 -278 -362c-50 0 -102 13 -147 43zM183 164l249 432c-32 25 -69 34 -104 34c-84 0 -184 -48 -184 -274
c0 -89 15 -151 39 -192zM474 546l-249 -432c32 -25 69 -32 103 -32c84 0 184 47 184 274c0 87 -15 148 -38 190z" />
    <glyph glyph-name="OE" unicode="&#x152;" horiz-adv-x="976" 
d="M946 0h-434v69c-52 -53 -119 -75 -184 -75c-135 0 -278 96 -278 362s143 362 278 362c65 0 132 -22 184 -76v70h434v-88h-342v-221h251v-88h-251v-227h342v-88zM328 82c84 0 184 47 184 274c0 226 -100 274 -184 274s-184 -48 -184 -274c0 -227 100 -274 184 -274z" />
    <glyph glyph-name="Ugrave" unicode="&#xd9;" horiz-adv-x="595" 
d="M443 225v487h92v-494c0 -144 -93 -224 -237 -224s-238 80 -238 224v494h92v-487c0 -89 48 -143 146 -143s145 54 145 143zM404 772h-70l-134 180h102z" />
    <glyph glyph-name="Uacute" unicode="&#xda;" horiz-adv-x="595" 
d="M443 225v487h92v-494c0 -144 -93 -224 -237 -224s-238 80 -238 224v494h92v-487c0 -89 48 -143 146 -143s145 54 145 143zM270 772h-70l102 180h102z" />
    <glyph glyph-name="Ucircumflex" unicode="&#xdb;" horiz-adv-x="595" 
d="M443 225v487h92v-494c0 -144 -93 -224 -237 -224s-238 80 -238 224v494h92v-487c0 -89 48 -143 146 -143s145 54 145 143zM441 772h-74l-62 108l-68 -108h-73l103 180h75z" />
    <glyph glyph-name="Udieresis" unicode="&#xdc;" horiz-adv-x="595" 
d="M443 225v487h92v-494c0 -144 -93 -224 -237 -224s-238 80 -238 224v494h92v-487c0 -89 48 -143 146 -143s145 54 145 143zM268 840c0 -34 -27 -60 -61 -60s-60 26 -60 60s26 61 60 61s61 -27 61 -61zM457 840c0 -34 -27 -60 -61 -60s-60 26 -60 60s26 61 60 61
s61 -27 61 -61z" />
    <glyph glyph-name="agrave" unicode="&#xe0;" 
d="M438 0h-85l-2 37c-39 -30 -87 -43 -140 -43c-97 0 -177 43 -177 148c0 96 66 146 180 153l134 8v25c0 64 -36 99 -104 99c-45 0 -86 -15 -110 -46l-74 21c20 65 96 111 189 111c119 0 189 -76 189 -175v-338zM348 138v94l-134 -8c-62 -4 -88 -32 -88 -80
c0 -32 12 -64 92 -64c38 0 89 7 130 58zM343 572h-70l-134 180h102z" />
    <glyph glyph-name="aacute" unicode="&#xe1;" 
d="M438 0h-85l-2 37c-39 -30 -87 -43 -140 -43c-97 0 -177 43 -177 148c0 96 66 146 180 153l134 8v25c0 64 -36 99 -104 99c-45 0 -86 -15 -110 -46l-74 21c20 65 96 111 189 111c119 0 189 -76 189 -175v-338zM348 138v94l-134 -8c-62 -4 -88 -32 -88 -80
c0 -32 12 -64 92 -64c38 0 89 7 130 58zM249 572h-70l102 180h102z" />
    <glyph glyph-name="acircumflex" unicode="&#xe2;" 
d="M438 0h-85l-2 37c-39 -30 -87 -43 -140 -43c-97 0 -177 43 -177 148c0 96 66 146 180 153l134 8v25c0 64 -36 99 -104 99c-45 0 -86 -15 -110 -46l-74 21c20 65 96 111 189 111c119 0 189 -76 189 -175v-338zM348 138v94l-134 -8c-62 -4 -88 -32 -88 -80
c0 -32 12 -64 92 -64c38 0 89 7 130 58zM390 572h-74l-62 108l-68 -108h-73l103 180h75z" />
    <glyph glyph-name="atilde" unicode="&#xe3;" horiz-adv-x="502" 
d="M438 0h-85l-2 37c-39 -30 -87 -43 -140 -43c-97 0 -177 43 -177 148c0 96 66 146 180 153l134 8v25c0 64 -36 99 -104 99c-45 0 -86 -15 -110 -46l-74 21c20 65 96 111 189 111c119 0 189 -76 189 -175v-338zM348 138v94l-134 -8c-62 -4 -88 -32 -88 -80
c0 -32 12 -64 92 -64c38 0 89 7 130 58zM368 708l54 -11c-10 -58 -32 -109 -93 -109c-51 0 -93 36 -142 36c-36 0 -44 -18 -51 -43l-56 11c14 67 44 109 97 109c50 0 94 -36 140 -36c31 0 40 15 51 43z" />
    <glyph glyph-name="ae" unicode="&#xe6;" horiz-adv-x="825" 
d="M695 143l80 -21c-24 -85 -109 -128 -198 -128c-74 0 -148 29 -186 83c-58 -73 -128 -83 -177 -83c-101 0 -180 43 -180 148c0 96 66 146 180 153l134 8v25c0 64 -36 99 -104 99c-45 0 -86 -15 -110 -46l-74 21c20 65 96 111 189 111c70 0 123 -27 155 -69
c37 42 100 69 168 69c104 0 219 -62 219 -236v-26l-353 -15c8 -130 74 -156 134 -156c51 0 97 19 123 63zM348 138v94l-134 -8c-62 -4 -88 -32 -88 -80c0 -32 12 -64 92 -64c38 0 89 7 130 58zM439 306l257 11c-10 92 -78 110 -127 110c-54 0 -116 -22 -130 -121z" />
    <glyph glyph-name="ccedilla" unicode="&#xe7;" horiz-adv-x="478" 
d="M364 143l80 -21c-22 -81 -89 -128 -184 -128c-115 0 -226 69 -226 259c0 191 112 260 227 260c89 0 160 -42 183 -124l-80 -21c-22 41 -59 59 -106 59c-60 0 -132 -29 -132 -174c0 -144 72 -173 131 -173c48 0 85 19 107 63zM184 -208v47c22 -10 52 -17 74 -17
c30 0 49 13 49 41c0 33 -26 38 -42 39l-40 2l23 96h48l-12 -56c43 2 102 -13 102 -77c0 -61 -53 -93 -115 -93c-29 0 -63 7 -87 18z" />
    <glyph glyph-name="lslash" unicode="&#x142;" horiz-adv-x="354" 
d="M334 0h-300v82h105v232l-58 -29v82l58 29v234h-105v82h195v-270l71 37v-82l-71 -37v-278h105v-82z" />
    <glyph glyph-name="eth" unicode="&#xf0;" horiz-adv-x="513" 
d="M403 637l-88 -27l96 -143c42 -63 68 -134 68 -221c0 -180 -113 -252 -224 -252c-108 0 -221 69 -221 260c0 190 113 259 223 259c6 0 12 0 17 -1l-47 72l-111 -34l-19 66l91 27l-67 104h104l51 -77l109 33zM257 80c60 0 130 29 130 173c0 145 -70 174 -130 174
c-59 0 -131 -29 -131 -174c0 -144 72 -173 131 -173z" />
    <glyph glyph-name="thorn" unicode="&#xfe;" horiz-adv-x="543" 
d="M156 -205h-90v917h90v-253c36 36 83 54 135 54c103 0 218 -69 218 -260c0 -190 -115 -259 -218 -259c-53 0 -99 18 -135 53v-252zM156 300v-72c14 -119 75 -148 133 -148s128 29 128 174c0 144 -70 173 -130 173c-52 0 -117 -22 -131 -127z" />
    <glyph glyph-name="germandbls" unicode="&#xdf;" horiz-adv-x="609" 
d="M242 24v75c40 -13 79 -19 108 -19c70 0 133 36 133 112c0 100 -107 126 -187 126v76h30c64 20 106 79 106 135c0 58 -46 103 -130 103c-86 0 -125 -47 -125 -124v-508h-90v425h-56v82h56c3 121 68 211 218 211c138 0 219 -76 219 -176c0 -72 -43 -134 -107 -162
c125 -39 158 -125 158 -192c0 -120 -105 -194 -216 -194c-39 0 -84 9 -117 30z" />
    <glyph glyph-name="Ntilde" unicode="&#xd1;" horiz-adv-x="651" 
d="M591 0h-97l-342 550v-550h-92v712h97l342 -549v549h92v-712zM444 908l54 -11c-10 -58 -32 -109 -93 -109c-51 0 -93 36 -142 36c-36 0 -44 -18 -51 -43l-56 11c14 67 44 109 97 109c50 0 94 -36 140 -36c31 0 40 15 51 43z" />
    <glyph glyph-name="ntilde" unicode="&#xf1;" horiz-adv-x="523" 
d="M457 0h-90v294c0 112 -56 133 -100 133s-99 -20 -111 -117v-310h-90v507h85l2 -44c35 33 78 50 125 50c85 0 179 -54 179 -210v-303zM382 708l54 -11c-10 -58 -32 -109 -93 -109c-51 0 -93 36 -142 36c-36 0 -44 -18 -51 -43l-56 11c14 67 44 109 97 109
c50 0 94 -36 140 -36c31 0 40 15 51 43z" />
    <glyph glyph-name="ograve" unicode="&#xf2;" horiz-adv-x="513" 
d="M257 -6c-110 0 -223 69 -223 259c0 191 113 260 223 260c109 0 222 -69 222 -260c0 -190 -113 -259 -222 -259zM257 80c60 0 130 29 130 173c0 145 -70 174 -130 174c-59 0 -131 -29 -131 -174c0 -144 72 -173 131 -173zM377 572h-70l-134 180h102z" />
    <glyph glyph-name="oacute" unicode="&#xf3;" horiz-adv-x="513" 
d="M257 -6c-110 0 -223 69 -223 259c0 191 113 260 223 260c109 0 222 -69 222 -260c0 -190 -113 -259 -222 -259zM257 80c60 0 130 29 130 173c0 145 -70 174 -130 174c-59 0 -131 -29 -131 -174c0 -144 72 -173 131 -173zM243 572h-70l102 180h102z" />
    <glyph glyph-name="ocircumflex" unicode="&#xf4;" horiz-adv-x="513" 
d="M257 -6c-110 0 -223 69 -223 259c0 191 113 260 223 260c109 0 222 -69 222 -260c0 -190 -113 -259 -222 -259zM257 80c60 0 130 29 130 173c0 145 -70 174 -130 174c-59 0 -131 -29 -131 -174c0 -144 72 -173 131 -173zM396 572h-74l-62 108l-68 -108h-73l103 180h75z
" />
    <glyph glyph-name="otilde" unicode="&#xf5;" horiz-adv-x="513" 
d="M257 -6c-110 0 -223 69 -223 259c0 191 113 260 223 260c109 0 222 -69 222 -260c0 -190 -113 -259 -222 -259zM257 80c60 0 130 29 130 173c0 145 -70 174 -130 174c-59 0 -131 -29 -131 -174c0 -144 72 -173 131 -173zM382 708l54 -11c-10 -58 -32 -109 -93 -109
c-51 0 -93 36 -142 36c-36 0 -44 -18 -51 -43l-56 11c14 67 44 109 97 109c50 0 94 -36 140 -36c31 0 40 15 51 43z" />
    <glyph glyph-name="oslash" unicode="&#xf8;" horiz-adv-x="513" 
d="M108 -42l-49 30l42 67c-40 41 -67 105 -67 198c0 191 113 260 223 260c38 0 77 -9 112 -28l36 58l50 -29l-41 -65c39 -41 65 -105 65 -196c0 -190 -113 -259 -222 -259c-38 0 -76 8 -110 26zM151 136l172 275c-21 12 -44 16 -66 16c-59 0 -131 -29 -131 -174
c0 -54 10 -91 25 -117zM363 368l-170 -273c21 -11 43 -15 64 -15c60 0 130 29 130 173c0 52 -10 89 -24 115z" />
    <glyph glyph-name="oe" unicode="&#x153;" horiz-adv-x="865" 
d="M831 227h-353c8 -122 74 -147 133 -147c52 0 98 19 124 63l80 -21c-24 -83 -104 -128 -201 -128c-71 0 -140 25 -183 85c-43 -60 -109 -85 -174 -85c-110 0 -223 69 -223 259c0 191 113 260 223 260c65 0 132 -25 175 -86c43 61 110 86 176 86c110 0 223 -69 223 -260
v-26zM257 80c60 0 130 29 130 173c0 145 -70 174 -130 174c-59 0 -131 -29 -131 -174c0 -144 72 -173 131 -173zM477 297h259c-13 107 -76 130 -128 130c-55 0 -117 -23 -131 -130z" />
    <glyph glyph-name="zcaron" unicode="&#x17e;" horiz-adv-x="445" 
d="M407 0h-373v73l262 352h-250v82h361v-78l-260 -347h260v-82zM270 572h-75l-103 180h73l68 -108l62 108h74z" />
    <glyph glyph-name="ydieresis" unicode="&#xff;" horiz-adv-x="455" 
d="M194 -205h-90l77 219l-179 493h98l127 -362l128 362h98zM200 640c0 -34 -27 -60 -61 -60s-60 26 -60 60s26 61 60 61s61 -27 61 -61zM389 640c0 -34 -27 -60 -61 -60s-60 26 -60 60s26 61 60 61s61 -27 61 -61z" />
    <glyph glyph-name="yacute" unicode="&#xfd;" horiz-adv-x="455" 
d="M194 -205h-90l77 219l-179 493h98l127 -362l128 362h98zM222 572h-70l102 180h102z" />
    <glyph glyph-name="scaron" unicode="&#x161;" horiz-adv-x="450" 
d="M397 389l-80 -21c-18 41 -46 59 -87 59c-46 0 -80 -22 -80 -56c0 -38 43 -47 133 -80c72 -27 133 -61 133 -146c0 -101 -87 -151 -193 -151c-99 0 -165 43 -189 128l80 21c24 -47 64 -63 113 -63c51 0 95 17 95 65c0 44 -38 50 -131 86c-64 25 -133 54 -133 138
c0 87 74 144 172 144c83 0 145 -40 167 -124zM268 572h-75l-103 180h73l68 -108l62 108h74z" />
    <glyph glyph-name="edieresis" unicode="&#xeb;" horiz-adv-x="514" 
d="M480 227h-353c8 -122 74 -147 133 -147c52 0 98 19 124 63l80 -21c-24 -83 -104 -128 -201 -128c-119 0 -229 69 -229 258c0 192 113 261 223 261s223 -69 223 -260v-26zM128 297h257c-13 107 -76 130 -128 130c-53 0 -115 -23 -129 -130zM230 640c0 -34 -27 -60 -61 -60
s-60 26 -60 60s26 61 60 61s61 -27 61 -61zM419 640c0 -34 -27 -60 -61 -60s-60 26 -60 60s26 61 60 61s61 -27 61 -61z" />
    <glyph glyph-name="ecircumflex" unicode="&#xea;" horiz-adv-x="514" 
d="M480 227h-353c8 -122 74 -147 133 -147c52 0 98 19 124 63l80 -21c-24 -83 -104 -128 -201 -128c-119 0 -229 69 -229 258c0 192 113 261 223 261s223 -69 223 -260v-26zM128 297h257c-13 107 -76 130 -128 130c-53 0 -115 -23 -129 -130zM402 572h-74l-62 108l-68 -108
h-73l103 180h75z" />
    <glyph glyph-name="eacute" unicode="&#xe9;" horiz-adv-x="514" 
d="M480 227h-353c8 -122 74 -147 133 -147c52 0 98 19 124 63l80 -21c-24 -83 -104 -128 -201 -128c-119 0 -229 69 -229 258c0 192 113 261 223 261s223 -69 223 -260v-26zM128 297h257c-13 107 -76 130 -128 130c-53 0 -115 -23 -129 -130zM242 572h-70l102 180h102z" />
    <glyph glyph-name="egrave" unicode="&#xe8;" horiz-adv-x="514" 
d="M480 227h-353c8 -122 74 -147 133 -147c52 0 98 19 124 63l80 -21c-24 -83 -104 -128 -201 -128c-119 0 -229 69 -229 258c0 192 113 261 223 261s223 -69 223 -260v-26zM128 297h257c-13 107 -76 130 -128 130c-53 0 -115 -23 -129 -130zM376 572h-70l-134 180h102z" />
    <glyph glyph-name="dotlessi" unicode="&#x131;" horiz-adv-x="354" 
d="M334 0h-300v82h105v343h-105v82h195v-425h105v-82z" />
    <glyph glyph-name="idieresis" unicode="&#xef;" horiz-adv-x="361" 
d="M147 640c0 -34 -27 -60 -61 -60s-60 26 -60 60s26 61 60 61s61 -27 61 -61zM336 640c0 -34 -27 -60 -61 -60s-60 26 -60 60s26 61 60 61s61 -27 61 -61zM331 0h-300v82h105v343h-105v82h195v-425h105v-82z" />
    <glyph glyph-name="icircumflex" unicode="&#xee;" horiz-adv-x="354" 
d="M320 572h-74l-62 108l-68 -108h-73l103 180h75zM334 0h-300v82h105v343h-105v82h195v-425h105v-82z" />
    <glyph glyph-name="iacute" unicode="&#xed;" horiz-adv-x="354" 
d="M155 572h-70l102 180h102zM334 0h-300v82h105v343h-105v82h195v-425h105v-82z" />
    <glyph glyph-name="igrave" unicode="&#xec;" horiz-adv-x="354" 
d="M219 572h-70l-134 180h102zM334 0h-300v82h105v343h-105v82h195v-425h105v-82z" />
    <glyph glyph-name="ugrave" unicode="&#xf9;" horiz-adv-x="533" 
d="M467 0h-85l-3 45c-38 -34 -84 -51 -133 -51c-86 0 -180 54 -180 210v303h90v-294c0 -113 56 -133 102 -133c45 0 106 20 119 117v310h90v-507zM380 572h-70l-134 180h102z" />
    <glyph glyph-name="uacute" unicode="&#xfa;" horiz-adv-x="533" 
d="M467 0h-85l-3 45c-38 -34 -84 -51 -133 -51c-86 0 -180 54 -180 210v303h90v-294c0 -113 56 -133 102 -133c45 0 106 20 119 117v310h90v-507zM246 572h-70l102 180h102z" />
    <glyph glyph-name="ucircumflex" unicode="&#xfb;" horiz-adv-x="533" 
d="M467 0h-85l-3 45c-38 -34 -84 -51 -133 -51c-86 0 -180 54 -180 210v303h90v-294c0 -113 56 -133 102 -133c45 0 106 20 119 117v310h90v-507zM402 572h-74l-62 108l-68 -108h-73l103 180h75z" />
    <glyph glyph-name="udieresis" unicode="&#xfc;" horiz-adv-x="533" 
d="M467 0h-85l-3 45c-38 -34 -84 -51 -133 -51c-86 0 -180 54 -180 210v303h90v-294c0 -113 56 -133 102 -133c45 0 106 20 119 117v310h90v-507zM234 640c0 -34 -27 -60 -61 -60s-60 26 -60 60s26 61 60 61s61 -27 61 -61zM423 640c0 -34 -27 -60 -61 -60s-60 26 -60 60
s26 61 60 61s61 -27 61 -61z" />
    <glyph glyph-name="a.alt" horiz-adv-x="486" 
d="M438 0h-85l-2 37c-39 -30 -87 -43 -140 -43c-97 0 -177 43 -177 148c0 96 66 146 180 153l134 8v25c0 64 -37 99 -103 99c-43 0 -74 -15 -94 -46l-74 21c20 68 86 111 174 111c116 0 187 -76 187 -175v-338zM348 138v94l-134 -8c-62 -4 -88 -32 -88 -80
c0 -32 12 -64 92 -64c38 0 89 7 130 58z" />
    <glyph glyph-name="longs" unicode="&#x17f;" horiz-adv-x="320" 
d="M177 0h-90v425h-56v82h56v21c0 108 44 190 167 190c52 0 94 -15 126 -43l-53 -73c-18 20 -41 30 -70 30c-59 0 -80 -40 -80 -104v-528z" />
    <glyph glyph-name="CR" unicode="&#xd;" horiz-adv-x="500" 
 />
    <glyph glyph-name=".null" horiz-adv-x="0" 
 />
    <glyph glyph-name=".null" horiz-adv-x="0" 
 />
    <glyph glyph-name="adieresis.alt" horiz-adv-x="486" 
d="M222 640c0 -34 -27 -60 -61 -60s-60 26 -60 60s26 61 60 61s61 -27 61 -61zM411 640c0 -34 -27 -60 -61 -60s-60 26 -60 60s26 61 60 61s61 -27 61 -61zM438 0h-85l-2 37c-39 -30 -87 -43 -140 -43c-97 0 -177 43 -177 148c0 96 66 146 180 153l134 8v25
c0 64 -37 99 -103 99c-43 0 -74 -15 -94 -46l-74 21c20 68 86 111 174 111c116 0 187 -76 187 -175v-338zM348 138v94l-134 -8c-62 -4 -88 -32 -88 -80c0 -32 12 -64 92 -64c38 0 89 7 130 58z" />
    <glyph glyph-name="aring.alt" horiz-adv-x="486" 
d="M334 640c0 -43 -35 -78 -78 -78s-78 35 -78 78s35 78 78 78s78 -35 78 -78zM438 0h-85l-2 37c-39 -30 -87 -43 -140 -43c-97 0 -177 43 -177 148c0 96 66 146 180 153l134 8v25c0 64 -37 99 -103 99c-43 0 -74 -15 -94 -46l-74 21c20 68 86 111 174 111
c116 0 187 -76 187 -175v-338zM348 138v94l-134 -8c-62 -4 -88 -32 -88 -80c0 -32 12 -64 92 -64c38 0 89 7 130 58z" />
    <glyph glyph-name="zero.slash" horiz-adv-x="616" 
d="M308 -6c-131 0 -268 95 -268 362s137 362 268 362s268 -95 268 -362s-137 -362 -268 -362zM159 189l254 401c-31 31 -70 40 -105 40c-80 0 -174 -47 -174 -275c0 -71 9 -126 25 -166zM461 511l-250 -397c30 -24 65 -32 97 -32c79 0 174 47 174 274c0 66 -8 116 -21 155z
" />
    <glyph glyph-name="zero.fitted" horiz-adv-x="616" 
d="M308 -6c-131 0 -268 95 -268 362s137 362 268 362s268 -95 268 -362s-137 -362 -268 -362zM308 82c79 0 174 47 174 274s-95 274 -174 274s-174 -47 -174 -274s95 -274 174 -274z" />
    <glyph glyph-name="one.fitted" horiz-adv-x="455" 
d="M410 0h-360v82h134v521l-102 -86l-27 79l129 116h92v-630h134v-82z" />
    <glyph glyph-name="two.fitted" horiz-adv-x="503" 
d="M473 0h-443v89l262 279c51 55 71 89 71 142c0 71 -35 120 -109 120c-78 0 -123 -54 -123 -146h-94c0 150 88 234 217 234c125 0 203 -80 203 -204c0 -101 -51 -153 -104 -211l-192 -207h312v-96z" />
    <glyph glyph-name="three.fitted" horiz-adv-x="508" 
d="M242 371h-21v88l121 156h-269v97h380v-90l-133 -173c92 -26 148 -104 148 -227c0 -147 -80 -228 -215 -228c-124 0 -213 64 -213 184h94c0 -62 46 -96 120 -96c83 0 120 51 120 142c0 94 -41 147 -132 147z" />
    <glyph glyph-name="four.fitted" horiz-adv-x="511" 
d="M407 0h-92v151h-290v115l300 446h97l-310 -465v-14h203v175h92v-175h79v-82h-79v-151z" />
    <glyph glyph-name="five.fitted" horiz-adv-x="528" 
d="M40 178h94c0 -62 46 -96 120 -96c97 0 140 59 140 162c0 100 -41 157 -132 157c-59 0 -104 -24 -120 -65h-93l48 376h378v-96h-297l-20 -152c30 16 67 25 110 25c133 0 220 -88 220 -247s-88 -248 -235 -248c-124 0 -213 64 -213 184z" />
    <glyph glyph-name="six.fitted" horiz-adv-x="528" 
d="M471 637l-64 -58c-16 23 -56 51 -116 51c-88 0 -149 -59 -157 -235c36 37 76 57 138 57c127 0 216 -82 216 -230c0 -146 -87 -228 -221 -228c-135 0 -227 82 -227 229v121c0 263 100 374 252 374c72 0 142 -25 179 -81zM267 82c85 0 127 53 127 141s-42 141 -127 141
c-84 0 -133 -51 -133 -141s49 -141 133 -141z" />
    <glyph glyph-name="seven.fitted" horiz-adv-x="472" 
d="M174 0h-101l282 616h-339v96h440v-89z" />
    <glyph glyph-name="eight.fitted" horiz-adv-x="514" 
d="M380 373c59 -32 94 -91 94 -175c0 -132 -88 -204 -217 -204s-217 72 -217 204c0 84 35 143 93 175c-44 31 -69 81 -69 152c0 124 76 193 193 193s193 -69 193 -193c0 -71 -25 -121 -70 -152zM380 200c0 77 -42 125 -123 125s-123 -48 -123 -125s43 -118 123 -118
s123 41 123 118zM257 413c63 0 99 41 99 110s-36 107 -99 107s-99 -38 -99 -107s36 -110 99 -110z" />
    <glyph glyph-name="nine.fitted" horiz-adv-x="528" 
d="M488 489v-121c0 -263 -95 -374 -244 -374c-67 0 -146 22 -187 81l64 58c18 -25 66 -51 123 -51c86 0 143 59 150 235c-36 -37 -76 -57 -138 -57c-127 0 -216 82 -216 230c0 146 87 228 221 228c135 0 227 -82 227 -229zM261 348c84 0 133 51 133 141s-49 141 -133 141
c-85 0 -127 -53 -127 -141s42 -141 127 -141z" />
    <glyph glyph-name="onesuperior" unicode="&#xb9;" horiz-adv-x="380" 
d="M269 347v-56h-218v56h76v288l-56 -47l-18 55l77 71h61v-367h78z" />
    <glyph glyph-name="twosuperior" unicode="&#xb2;" horiz-adv-x="297" 
d="M282 355v-64h-267v57l153 163c29 31 41 51 41 82c0 38 -18 64 -59 64c-42 0 -67 -32 -67 -85h-65c0 93 54 146 132 146c75 0 123 -49 123 -124c0 -61 -29 -92 -61 -126l-105 -113h175z" />
    <glyph glyph-name="threesuperior" unicode="&#xb3;" horiz-adv-x="269" 
d="M5 414h65c0 -42 25 -67 68 -67s62 23 62 63c0 42 -20 67 -63 67h-22v60h22c37 0 57 19 57 58s-20 62 -57 62c-41 0 -62 -24 -62 -67h-65c0 81 51 128 127 128c73 0 119 -45 119 -121c0 -42 -12 -68 -39 -88c30 -21 47 -55 47 -100c0 -80 -49 -121 -126 -121
c-80 0 -133 42 -133 126z" />
    <glyph glyph-name="W.alt" horiz-adv-x="773" 
d="M600 0h-82l-132 401l-131 -401h-82l-171 712h95l124 -539l119 370h93l118 -370l125 539h95z" />
    <glyph glyph-name="r.alt" horiz-adv-x="351" 
d="M347 503l-32 -94c-12 4 -25 6 -41 6c-47 0 -105 -22 -118 -131v-284h-90v507h85l3 -69c36 51 81 75 132 75c21 0 42 -4 61 -10z" />
    <glyph glyph-name="r.alt2" horiz-adv-x="411" 
d="M156 0h-90v507h85l3 -69c36 51 81 75 132 75c46 0 89 -15 121 -43l-53 -85c-21 20 -46 30 -80 30c-47 0 -105 -22 -118 -131v-284z" />
    <glyph glyph-name="w.alt" horiz-adv-x="621" 
d="M492 0h-100l-82 250l-81 -250h-100l-127 507h98l90 -389l84 269h73l84 -269l90 389h98z" />
    <glyph glyph-name="aring.alt2" 
d="M313 640c0 31 -26 57 -57 57c-32 0 -57 -26 -57 -57c0 -32 25 -57 57 -57c31 0 57 25 57 57zM438 0h-85l-2 37c-39 -30 -87 -43 -140 -43c-97 0 -177 43 -177 148c0 96 66 146 180 153l134 8v25c0 64 -36 99 -104 99c-45 0 -86 -15 -110 -46l-74 21c20 65 96 111 189 111
c119 0 189 -76 189 -175v-338zM348 138v94l-134 -8c-62 -4 -88 -32 -88 -80c0 -32 12 -64 92 -64c38 0 89 7 130 58zM359 640c0 -56 -47 -104 -103 -104s-104 48 -104 104s48 103 104 103s103 -47 103 -103z" />
    <glyph glyph-name="uni00A0" unicode="&#xa0;" horiz-adv-x="240" 
 />
    </font>
</defs>
</svg>
